<svg xmlns="http://www.w3.org/2000/svg" data-name="Layer 1" viewBox="0 0 512 512"><g data-name="&lt;Group&gt;"><path d="M334.721,22.487A8.058,8.058,0,0,0,328.98,20H116.231A48.353,48.353,0,0,0,68,68.118V443.882A48.353,48.353,0,0,0,116.231,492H395.769A48.353,48.353,0,0,0,444,443.882V138.132a8.188,8.188,0,0,0-2.375-5.6ZM337,47.846,416.854,130H348.98A11.884,11.884,0,0,1,337,118.132ZM395.769,476H116.231A32.337,32.337,0,0,1,84,443.882V68.118A32.337,32.337,0,0,1,116.231,36H321v82.132A27.9,27.9,0,0,0,348.98,146H428V443.882A32.337,32.337,0,0,1,395.769,476Z" data-name="&lt;Compound Path&gt;"/><path d="M203.524,221h0a7.961,7.961,0,0,0-1.461.061,25.845,25.845,0,1,0-31.6.006A7.982,7.982,0,0,0,169,221h0a23.892,23.892,0,0,0-24,23.89v24.42a7.693,7.693,0,0,0,7.943,7.69h66.633c4.418,0,8.424-3.272,8.424-7.69V244.891C228,231.627,216.788,221,203.524,221ZM186.26,190.69a9.849,9.849,0,1,1-9.848,9.848A9.859,9.859,0,0,1,186.26,190.69Zm0,35.7a25.694,25.694,0,0,0,10.924-2.429c-.036.045-.076.085-.11.131a13.421,13.421,0,0,1-21.629,0c-.034-.046-.074-.086-.109-.132A25.688,25.688,0,0,0,186.26,226.387ZM212,244.89V261H161V244.89a8.052,8.052,0,0,1,4.971-7.459,29.393,29.393,0,0,0,40.6,0,8.269,8.269,0,0,1,5.217,7.461Z" data-name="&lt;Compound Path&gt;"/><path d="M254,165a8,8,0,0,0-8-8H126a8,8,0,0,0-8,8V288a8,8,0,0,0,8,8H246a8,8,0,0,0,8-8Zm-120,8H238V279H134Z" data-name="&lt;Compound Path&gt;"/><path d="M265.978 201h63.11a8 8 0 0 0 0-16h-63.11a8 8 0 0 0 0 16zM385.5 218H265.978a8 8 0 0 0 0 16H385.5a8 8 0 0 0 0-16zM385.5 251H265.978a8 8 0 0 0 0 16H385.5a8 8 0 0 0 0-16zM376 382H126.5a8 8 0 0 0 0 16H376a8 8 0 0 0 0-16zM376 328H126.5a8 8 0 1 0 0 16H376a8 8 0 0 0 0-16z" data-name="&lt;Path&gt;"/></g></svg>